<mxfile host="www.draw.io" modified="2019-11-20T07:41:37.534Z" agent="Mozilla/5.0 (Macintosh; Intel Mac OS X 10_15_1) AppleWebKit/537.36 (KHTML, like Gecko) Chrome/78.0.3904.97 Safari/537.36" etag="g6LDr8VzukkchNMal4HF" version="12.2.7" type="github" pages="1">
  <diagram name="Page-1" id="13e1069c-82ec-6db2-03f1-153e76fe0fe0">
    <mxGraphModel dx="1077" dy="629" grid="0" gridSize="10" guides="1" tooltips="1" connect="1" arrows="1" fold="1" page="1" pageScale="1" pageWidth="3300" pageHeight="2339" background="#ffffff" math="0" shadow="0">
      <root>
        <mxCell id="0"/>
        <mxCell id="1" parent="0"/>
        <mxCell id="7baba1c4bc27f4b0-2" value="iouui" style="shape=umlLifeline;perimeter=lifelinePerimeter;whiteSpace=wrap;html=1;container=1;collapsible=0;recursiveResize=0;outlineConnect=0;rounded=1;shadow=0;comic=0;labelBackgroundColor=none;strokeWidth=1;fontFamily=Verdana;fontSize=12;align=center;fillColor=#dae8fc;strokeColor=#6c8ebf;" parent="1" vertex="1">
          <mxGeometry x="240" y="80" width="100" height="930" as="geometry"/>
        </mxCell>
        <mxCell id="7baba1c4bc27f4b0-10" value="" style="html=1;points=[];perimeter=orthogonalPerimeter;rounded=0;shadow=0;comic=0;labelBackgroundColor=none;strokeWidth=1;fontFamily=Verdana;fontSize=12;align=center;" parent="7baba1c4bc27f4b0-2" vertex="1">
          <mxGeometry x="45" y="93" width="10" height="67" as="geometry"/>
        </mxCell>
        <mxCell id="QGdpu4Uqd6GE81_px6eS-17" value="" style="html=1;points=[];perimeter=orthogonalPerimeter;rounded=0;shadow=0;comic=0;labelBackgroundColor=none;strokeWidth=1;fontFamily=Verdana;fontSize=12;align=center;" parent="7baba1c4bc27f4b0-2" vertex="1">
          <mxGeometry x="50" y="454" width="10" height="50" as="geometry"/>
        </mxCell>
        <mxCell id="7baba1c4bc27f4b0-3" value="server" style="shape=umlLifeline;perimeter=lifelinePerimeter;whiteSpace=wrap;html=1;container=1;collapsible=0;recursiveResize=0;outlineConnect=0;rounded=1;shadow=0;comic=0;labelBackgroundColor=none;strokeWidth=1;fontFamily=Verdana;fontSize=12;align=center;fillColor=#dae8fc;strokeColor=#6c8ebf;" parent="1" vertex="1">
          <mxGeometry x="392" y="80" width="100" height="940" as="geometry"/>
        </mxCell>
        <mxCell id="7baba1c4bc27f4b0-13" value="" style="html=1;points=[];perimeter=orthogonalPerimeter;rounded=0;shadow=0;comic=0;labelBackgroundColor=none;strokeWidth=1;fontFamily=Verdana;fontSize=12;align=center;" parent="7baba1c4bc27f4b0-3" vertex="1">
          <mxGeometry x="45" y="100" width="10" height="50" as="geometry"/>
        </mxCell>
        <mxCell id="QGdpu4Uqd6GE81_px6eS-34" value="" style="html=1;points=[];perimeter=orthogonalPerimeter;rounded=0;shadow=0;comic=0;labelBackgroundColor=none;strokeWidth=1;fontFamily=Verdana;fontSize=12;align=center;" parent="7baba1c4bc27f4b0-3" vertex="1">
          <mxGeometry x="50" y="225" width="10" height="50" as="geometry"/>
        </mxCell>
        <mxCell id="7baba1c4bc27f4b0-4" value="销账系统" style="shape=umlLifeline;perimeter=lifelinePerimeter;whiteSpace=wrap;html=1;container=1;collapsible=0;recursiveResize=0;outlineConnect=0;rounded=1;shadow=0;comic=0;labelBackgroundColor=none;strokeWidth=1;fontFamily=Verdana;fontSize=12;align=center;fillColor=#dae8fc;strokeColor=#6c8ebf;" parent="1" vertex="1">
          <mxGeometry x="585" y="80" width="100" height="940" as="geometry"/>
        </mxCell>
        <mxCell id="7baba1c4bc27f4b0-16" value="" style="html=1;points=[];perimeter=orthogonalPerimeter;rounded=0;shadow=0;comic=0;labelBackgroundColor=none;strokeWidth=1;fontFamily=Verdana;fontSize=12;align=center;" parent="7baba1c4bc27f4b0-4" vertex="1">
          <mxGeometry x="46" y="110" width="10" height="30" as="geometry"/>
        </mxCell>
        <mxCell id="7baba1c4bc27f4b0-8" value="client" style="shape=umlLifeline;perimeter=lifelinePerimeter;whiteSpace=wrap;html=1;container=1;collapsible=0;recursiveResize=0;outlineConnect=0;rounded=1;shadow=0;comic=0;labelBackgroundColor=none;strokeWidth=1;fontFamily=Verdana;fontSize=12;align=center;fillColor=#dae8fc;strokeColor=#6c8ebf;" parent="1" vertex="1">
          <mxGeometry x="100" y="80" width="100" height="930" as="geometry"/>
        </mxCell>
        <mxCell id="7baba1c4bc27f4b0-17" value="是否下发销账按钮" style="html=1;verticalAlign=bottom;endArrow=block;labelBackgroundColor=none;fontFamily=Verdana;fontSize=12;edgeStyle=elbowEdgeStyle;elbow=vertical;" parent="1" edge="1">
          <mxGeometry x="-0.008" relative="1" as="geometry">
            <mxPoint x="445" y="190" as="sourcePoint"/>
            <Array as="points">
              <mxPoint x="458" y="190"/>
            </Array>
            <mxPoint x="632.5" y="190" as="targetPoint"/>
            <mxPoint as="offset"/>
          </mxGeometry>
        </mxCell>
        <mxCell id="7baba1c4bc27f4b0-23" value="债权人发起销账前置信息页&lt;br&gt;preRelief" style="html=1;verticalAlign=bottom;endArrow=block;labelBackgroundColor=none;fontFamily=Verdana;fontSize=12;" parent="1" edge="1">
          <mxGeometry relative="1" as="geometry">
            <mxPoint x="155" y="283" as="sourcePoint"/>
            <mxPoint x="289.5" y="283" as="targetPoint"/>
            <Array as="points">
              <mxPoint x="250" y="283"/>
            </Array>
          </mxGeometry>
        </mxCell>
        <mxCell id="7baba1c4bc27f4b0-11" value="债权人欠条详情页&lt;br&gt;getReceiveIouInfo接口" style="html=1;verticalAlign=bottom;endArrow=block;entryX=0;entryY=0;labelBackgroundColor=none;fontFamily=Verdana;fontSize=12;edgeStyle=elbowEdgeStyle;elbow=vertical;" parent="1" target="7baba1c4bc27f4b0-10" edge="1">
          <mxGeometry relative="1" as="geometry">
            <mxPoint x="155" y="173" as="sourcePoint"/>
          </mxGeometry>
        </mxCell>
        <mxCell id="7baba1c4bc27f4b0-14" value="是否下发销账按钮" style="html=1;verticalAlign=bottom;endArrow=block;labelBackgroundColor=none;fontFamily=Verdana;fontSize=12;edgeStyle=elbowEdgeStyle;elbow=vertical;" parent="1" edge="1">
          <mxGeometry x="0.0494" relative="1" as="geometry">
            <mxPoint x="295" y="180" as="sourcePoint"/>
            <mxPoint x="437" y="180" as="targetPoint"/>
            <Array as="points">
              <mxPoint x="366" y="180"/>
            </Array>
            <mxPoint as="offset"/>
          </mxGeometry>
        </mxCell>
        <mxCell id="QGdpu4Uqd6GE81_px6eS-4" value="下发销账按钮" style="html=1;verticalAlign=bottom;endArrow=open;dashed=1;endSize=8;labelBackgroundColor=none;fontFamily=Verdana;fontSize=12;edgeStyle=elbowEdgeStyle;elbow=vertical;" parent="1" edge="1">
          <mxGeometry relative="1" as="geometry">
            <mxPoint x="150" y="239.5" as="targetPoint"/>
            <Array as="points">
              <mxPoint x="225" y="239.5"/>
              <mxPoint x="255" y="239.5"/>
            </Array>
            <mxPoint x="280" y="239.5" as="sourcePoint"/>
          </mxGeometry>
        </mxCell>
        <mxCell id="QGdpu4Uqd6GE81_px6eS-5" value="data" style="html=1;verticalAlign=bottom;endArrow=open;dashed=1;endSize=8;labelBackgroundColor=none;fontFamily=Verdana;fontSize=12;edgeStyle=elbowEdgeStyle;elbow=vertical;" parent="1" edge="1">
          <mxGeometry relative="1" as="geometry">
            <mxPoint x="150" y="369" as="targetPoint"/>
            <Array as="points">
              <mxPoint x="225" y="369"/>
              <mxPoint x="255" y="369"/>
            </Array>
            <mxPoint x="290" y="369.5" as="sourcePoint"/>
          </mxGeometry>
        </mxCell>
        <mxCell id="QGdpu4Uqd6GE81_px6eS-6" value="" style="html=1;points=[];perimeter=orthogonalPerimeter;rounded=0;shadow=0;comic=0;labelBackgroundColor=none;strokeWidth=1;fontFamily=Verdana;fontSize=12;align=center;" parent="1" vertex="1">
          <mxGeometry x="290" y="283" width="10" height="87" as="geometry"/>
        </mxCell>
        <mxCell id="QGdpu4Uqd6GE81_px6eS-12" value="发起销账v2/addRelief" style="html=1;verticalAlign=bottom;endArrow=block;labelBackgroundColor=none;fontFamily=Verdana;fontSize=12;" parent="1" edge="1">
          <mxGeometry x="0.4126" y="-30" relative="1" as="geometry">
            <mxPoint x="151" y="409" as="sourcePoint"/>
            <mxPoint x="285.5" y="409" as="targetPoint"/>
            <Array as="points">
              <mxPoint x="246" y="409"/>
            </Array>
            <mxPoint x="-30" y="-30" as="offset"/>
          </mxGeometry>
        </mxCell>
        <mxCell id="QGdpu4Uqd6GE81_px6eS-13" value="451需要鉴权" style="html=1;verticalAlign=bottom;endArrow=open;dashed=1;endSize=8;labelBackgroundColor=none;fontFamily=Verdana;fontSize=12;edgeStyle=elbowEdgeStyle;elbow=vertical;" parent="1" edge="1">
          <mxGeometry x="-0.1388" relative="1" as="geometry">
            <mxPoint x="150" y="448.5" as="targetPoint"/>
            <Array as="points">
              <mxPoint x="225" y="448.5"/>
              <mxPoint x="255" y="448.5"/>
            </Array>
            <mxPoint x="290" y="449" as="sourcePoint"/>
            <mxPoint as="offset"/>
          </mxGeometry>
        </mxCell>
        <mxCell id="QGdpu4Uqd6GE81_px6eS-14" value="" style="html=1;points=[];perimeter=orthogonalPerimeter;rounded=0;shadow=0;comic=0;labelBackgroundColor=none;strokeWidth=1;fontFamily=Verdana;fontSize=12;align=center;" parent="1" vertex="1">
          <mxGeometry x="290" y="407" width="10" height="42" as="geometry"/>
        </mxCell>
        <mxCell id="QGdpu4Uqd6GE81_px6eS-15" value="携带eventID和formID&lt;br&gt;调用v2/addRelief" style="html=1;verticalAlign=bottom;endArrow=block;labelBackgroundColor=none;fontFamily=Verdana;fontSize=12;entryX=0.1;entryY=0;entryDx=0;entryDy=0;entryPerimeter=0;" parent="1" target="QGdpu4Uqd6GE81_px6eS-17" edge="1">
          <mxGeometry x="0.4126" y="-15" relative="1" as="geometry">
            <mxPoint x="150" y="534" as="sourcePoint"/>
            <mxPoint x="280" y="531" as="targetPoint"/>
            <Array as="points">
              <mxPoint x="245" y="534"/>
              <mxPoint x="260" y="534"/>
            </Array>
            <mxPoint x="-15" y="-15" as="offset"/>
          </mxGeometry>
        </mxCell>
        <mxCell id="QGdpu4Uqd6GE81_px6eS-16" value="发起结果，显示结果页" style="html=1;verticalAlign=bottom;endArrow=open;dashed=1;endSize=8;labelBackgroundColor=none;fontFamily=Verdana;fontSize=12;edgeStyle=elbowEdgeStyle;elbow=vertical;" parent="1" edge="1">
          <mxGeometry x="-0.1388" relative="1" as="geometry">
            <mxPoint x="150" y="584" as="targetPoint"/>
            <Array as="points">
              <mxPoint x="225" y="584"/>
              <mxPoint x="255" y="584"/>
            </Array>
            <mxPoint x="290" y="584.5" as="sourcePoint"/>
            <mxPoint as="offset"/>
          </mxGeometry>
        </mxCell>
        <mxCell id="QGdpu4Uqd6GE81_px6eS-18" value="发起销账：&lt;br&gt;createWriteOff" style="html=1;verticalAlign=bottom;endArrow=block;labelBackgroundColor=none;fontFamily=Verdana;fontSize=12;entryX=0.2;entryY=0.095;entryDx=0;entryDy=0;entryPerimeter=0;" parent="1" target="QGdpu4Uqd6GE81_px6eS-20" edge="1">
          <mxGeometry x="0.4126" y="-15" relative="1" as="geometry">
            <mxPoint x="300" y="544" as="sourcePoint"/>
            <mxPoint x="441" y="544" as="targetPoint"/>
            <Array as="points">
              <mxPoint x="395" y="544"/>
              <mxPoint x="410" y="544"/>
            </Array>
            <mxPoint x="-15" y="-15" as="offset"/>
          </mxGeometry>
        </mxCell>
        <mxCell id="QGdpu4Uqd6GE81_px6eS-19" value="data" style="html=1;verticalAlign=bottom;endArrow=open;dashed=1;endSize=8;labelBackgroundColor=none;fontFamily=Verdana;fontSize=12;edgeStyle=elbowEdgeStyle;elbow=vertical;" parent="1" edge="1">
          <mxGeometry x="-0.1388" relative="1" as="geometry">
            <mxPoint x="300" y="577" as="targetPoint"/>
            <Array as="points">
              <mxPoint x="375" y="577"/>
              <mxPoint x="405" y="577"/>
            </Array>
            <mxPoint x="440" y="577.5" as="sourcePoint"/>
            <mxPoint as="offset"/>
          </mxGeometry>
        </mxCell>
        <mxCell id="QGdpu4Uqd6GE81_px6eS-20" value="" style="html=1;points=[];perimeter=orthogonalPerimeter;rounded=0;shadow=0;comic=0;labelBackgroundColor=none;strokeWidth=1;fontFamily=Verdana;fontSize=12;align=center;" parent="1" vertex="1">
          <mxGeometry x="445" y="540" width="10" height="42" as="geometry"/>
        </mxCell>
        <mxCell id="QGdpu4Uqd6GE81_px6eS-21" value="发起销账：&lt;br&gt;createDebtCancel" style="html=1;verticalAlign=bottom;endArrow=block;labelBackgroundColor=none;fontFamily=Verdana;fontSize=12;entryX=-0.1;entryY=0.05;entryDx=0;entryDy=0;entryPerimeter=0;" parent="1" target="QGdpu4Uqd6GE81_px6eS-24" edge="1">
          <mxGeometry x="0.4126" y="-15" relative="1" as="geometry">
            <mxPoint x="455" y="554" as="sourcePoint"/>
            <mxPoint x="630" y="554" as="targetPoint"/>
            <Array as="points">
              <mxPoint x="550" y="554"/>
              <mxPoint x="565" y="554"/>
            </Array>
            <mxPoint x="-15" y="-15" as="offset"/>
          </mxGeometry>
        </mxCell>
        <mxCell id="QGdpu4Uqd6GE81_px6eS-24" value="" style="html=1;points=[];perimeter=orthogonalPerimeter;rounded=0;shadow=0;comic=0;labelBackgroundColor=none;strokeWidth=1;fontFamily=Verdana;fontSize=12;align=center;" parent="1" vertex="1">
          <mxGeometry x="636" y="554" width="10" height="20" as="geometry"/>
        </mxCell>
        <mxCell id="QGdpu4Uqd6GE81_px6eS-28" value="完成鉴权" style="curved=1;endArrow=classic;html=1;" parent="1" edge="1">
          <mxGeometry x="1" y="-14" width="50" height="50" relative="1" as="geometry">
            <mxPoint x="150" y="464" as="sourcePoint"/>
            <mxPoint x="149.5" y="494" as="targetPoint"/>
            <Array as="points">
              <mxPoint x="180" y="464"/>
              <mxPoint x="180" y="484"/>
              <mxPoint x="170" y="494"/>
              <mxPoint x="160" y="494"/>
            </Array>
            <mxPoint x="-9" y="4" as="offset"/>
          </mxGeometry>
        </mxCell>
        <mxCell id="QGdpu4Uqd6GE81_px6eS-30" value="response" style="html=1;verticalAlign=bottom;endArrow=open;dashed=1;endSize=8;labelBackgroundColor=none;fontFamily=Verdana;fontSize=12;edgeStyle=elbowEdgeStyle;elbow=vertical;" parent="1" edge="1">
          <mxGeometry relative="1" as="geometry">
            <mxPoint x="295" y="232.5" as="targetPoint"/>
            <Array as="points">
              <mxPoint x="370" y="232.5"/>
              <mxPoint x="400" y="232.5"/>
            </Array>
            <mxPoint x="430" y="233" as="sourcePoint"/>
          </mxGeometry>
        </mxCell>
        <mxCell id="QGdpu4Uqd6GE81_px6eS-31" value="response" style="html=1;verticalAlign=bottom;endArrow=open;dashed=1;endSize=8;labelBackgroundColor=none;fontFamily=Verdana;fontSize=12;edgeStyle=elbowEdgeStyle;elbow=vertical;" parent="1" edge="1">
          <mxGeometry relative="1" as="geometry">
            <mxPoint x="445.5" y="220.0000000000001" as="targetPoint"/>
            <Array as="points">
              <mxPoint x="520.5" y="220"/>
              <mxPoint x="550.5" y="220"/>
            </Array>
            <mxPoint x="635" y="220" as="sourcePoint"/>
          </mxGeometry>
        </mxCell>
        <mxCell id="QGdpu4Uqd6GE81_px6eS-32" value="获取可销账金额：&lt;br&gt;getIouTotalAmountByIou" style="html=1;verticalAlign=bottom;endArrow=block;labelBackgroundColor=none;fontFamily=Verdana;fontSize=12;edgeStyle=elbowEdgeStyle;elbow=vertical;" parent="1" edge="1">
          <mxGeometry relative="1" as="geometry">
            <mxPoint x="300" y="310" as="sourcePoint"/>
            <mxPoint x="442" y="310" as="targetPoint"/>
            <Array as="points">
              <mxPoint x="371" y="310"/>
            </Array>
            <mxPoint as="offset"/>
          </mxGeometry>
        </mxCell>
        <mxCell id="QGdpu4Uqd6GE81_px6eS-33" value="data" style="html=1;verticalAlign=bottom;endArrow=open;dashed=1;endSize=8;labelBackgroundColor=none;fontFamily=Verdana;fontSize=12;edgeStyle=elbowEdgeStyle;elbow=vertical;entryX=1;entryY=0.425;entryDx=0;entryDy=0;entryPerimeter=0;" parent="1" edge="1">
          <mxGeometry relative="1" as="geometry">
            <mxPoint x="303" y="354" as="targetPoint"/>
            <Array as="points"/>
            <mxPoint x="445" y="354" as="sourcePoint"/>
          </mxGeometry>
        </mxCell>
        <mxCell id="QGdpu4Uqd6GE81_px6eS-35" value="&amp;nbsp;可销账信息" style="html=1;verticalAlign=bottom;endArrow=block;labelBackgroundColor=none;fontFamily=Verdana;fontSize=12;edgeStyle=elbowEdgeStyle;elbow=vertical;" parent="1" edge="1">
          <mxGeometry x="0.0667" relative="1" as="geometry">
            <mxPoint x="450" y="320" as="sourcePoint"/>
            <Array as="points">
              <mxPoint x="463" y="320"/>
            </Array>
            <mxPoint x="637.5" y="320" as="targetPoint"/>
            <mxPoint as="offset"/>
          </mxGeometry>
        </mxCell>
        <mxCell id="QGdpu4Uqd6GE81_px6eS-36" value="data" style="html=1;verticalAlign=bottom;endArrow=open;dashed=1;endSize=8;labelBackgroundColor=none;fontFamily=Verdana;fontSize=12;edgeStyle=elbowEdgeStyle;elbow=vertical;" parent="1" edge="1">
          <mxGeometry relative="1" as="geometry">
            <mxPoint x="450" y="340.0000000000001" as="targetPoint"/>
            <Array as="points">
              <mxPoint x="525" y="340"/>
              <mxPoint x="555" y="340"/>
            </Array>
            <mxPoint x="639.5" y="340" as="sourcePoint"/>
          </mxGeometry>
        </mxCell>
        <mxCell id="QGdpu4Uqd6GE81_px6eS-37" value="" style="html=1;points=[];perimeter=orthogonalPerimeter;rounded=0;shadow=0;comic=0;labelBackgroundColor=none;strokeWidth=1;fontFamily=Verdana;fontSize=12;align=center;" parent="1" vertex="1">
          <mxGeometry x="635" y="320" width="10" height="20" as="geometry"/>
        </mxCell>
        <mxCell id="QGdpu4Uqd6GE81_px6eS-38" value="首次发起" style="rounded=0;whiteSpace=wrap;html=1;gradientColor=#ffd966;fillColor=#fff2cc;strokeColor=#d6b656;" parent="1" vertex="1">
          <mxGeometry x="100" y="418" width="84" height="20" as="geometry"/>
        </mxCell>
        <mxCell id="QGdpu4Uqd6GE81_px6eS-41" value="data" style="html=1;verticalAlign=bottom;endArrow=open;dashed=1;endSize=8;labelBackgroundColor=none;fontFamily=Verdana;fontSize=12;edgeStyle=elbowEdgeStyle;elbow=vertical;" parent="1" edge="1">
          <mxGeometry relative="1" as="geometry">
            <mxPoint x="452" y="573.5" as="targetPoint"/>
            <Array as="points">
              <mxPoint x="527" y="573.5"/>
              <mxPoint x="557" y="573.5"/>
            </Array>
            <mxPoint x="641.5" y="573.5" as="sourcePoint"/>
          </mxGeometry>
        </mxCell>
      </root>
    </mxGraphModel>
  </diagram>
</mxfile>
